<svg xmlns="http://www.w3.org/2000/svg" xmlns:xlink="http://www.w3.org/1999/xlink" xmlns:lucid="lucid" width="2520" height="1300"><g transform="translate(580 -60)" lucid:page-tab-id="o60vvkKdhTZg"><path d="M-1696 0h5152v1360h-5152z" fill="#fff"/><path d="M880 86c0-3.3 2.7-6 6-6h148c3.3 0 6 2.7 6 6v148c0 3.3-2.7 6-6 6H886c-3.3 0-6-2.7-6-6z" stroke="#5e5e5e" stroke-width="3" fill="#fff"/><use xlink:href="#a" transform="matrix(1,0,0,1,885,85) translate(19.53703703703703 78.71527777777777)"/><path d="M120 406c0-3.3 2.7-6 6-6h148c3.3 0 6 2.7 6 6v148c0 3.3-2.7 6-6 6H126c-3.3 0-6-2.7-6-6z" stroke="#5e5e5e" stroke-width="3" fill="#fff"/><use xlink:href="#b" transform="matrix(1,0,0,1,125,405) translate(35.55555555555555 78.71527777777777)"/><path d="M380 406c0-3.3 2.7-6 6-6h148c3.3 0 6 2.7 6 6v148c0 3.3-2.7 6-6 6H386c-3.3 0-6-2.7-6-6z" stroke="#5e5e5e" stroke-width="3" fill="#fff"/><use xlink:href="#c" transform="matrix(1,0,0,1,385,405) translate(23.240740740740748 78.71527777777777)"/><use xlink:href="#d" transform="matrix(1,0,0,1,385,405) translate(89.78395061728395 78.71527777777777)"/><path d="M640 406c0-3.3 2.7-6 6-6h148c3.3 0 6 2.7 6 6v148c0 3.3-2.7 6-6 6H646c-3.3 0-6-2.7-6-6z" stroke="#5e5e5e" stroke-width="3" fill="#fff"/><use xlink:href="#e" transform="matrix(1,0,0,1,645,405) translate(50.9567901234568 78.71527777777777)"/><path d="M900 406c0-3.3 2.7-6 6-6h148c3.3 0 6 2.7 6 6v148c0 3.3-2.7 6-6 6H906c-3.3 0-6-2.7-6-6z" stroke="#5e5e5e" stroke-width="3" fill="#fff"/><use xlink:href="#f" transform="matrix(1,0,0,1,905,405) translate(51.543209876543216 78.71527777777777)"/><path d="M1160 406c0-3.3 2.7-6 6-6h148c3.3 0 6 2.7 6 6v148c0 3.3-2.7 6-6 6h-148c-3.3 0-6-2.7-6-6z" stroke="#5e5e5e" stroke-width="3" fill="#fff"/><use xlink:href="#g" transform="matrix(1,0,0,1,1165,405) translate(59.598765432098766 78.71527777777777)"/><path d="M900 903c0-3.3 2.7-6 6-6h148c3.3 0 6 2.7 6 6v148c0 3.3-2.7 6-6 6H906c-3.3 0-6-2.7-6-6z" stroke="#5e5e5e" stroke-width="3" fill="#fff"/><use xlink:href="#h" transform="matrix(1,0,0,1,905,902) translate(38.05555555555556 78.71527777777777)"/><use xlink:href="#i" transform="matrix(1,0,0,1,905,902) translate(65.15432098765432 78.71527777777777)"/><path d="M1100 903c0-3.3 2.7-6 6-6h148c3.3 0 6 2.7 6 6v148c0 3.3-2.7 6-6 6h-148c-3.3 0-6-2.7-6-6z" stroke="#5e5e5e" stroke-width="3" fill="#fff"/><use xlink:href="#j" transform="matrix(1,0,0,1,1105,902) translate(34.074074074074076 78.71527777777777)"/><use xlink:href="#k" transform="matrix(1,0,0,1,1105,902) translate(85.92592592592592 78.71527777777777)"/><path d="M1320 903c0-3.3 2.7-6 6-6h148c3.3 0 6 2.7 6 6v148c0 3.3-2.7 6-6 6h-148c-3.3 0-6-2.7-6-6z" stroke="#5e5e5e" stroke-width="3" fill="#fff"/><use xlink:href="#l" transform="matrix(1,0,0,1,1325,902) translate(34.93827160493827 78.71527777777777)"/><use xlink:href="#m" transform="matrix(1,0,0,1,1325,902) translate(71.91358024691358 78.71527777777777)"/><g fill="none"><path d="M906 897c-3.3 0-6-2.7-6-6V783c0-3.3 2.7-6 6-6h1008c3.3 0 6 2.7 6 6v108c0 3.3-2.7 6-6 6z"/><path d="M1920 897c0-5.52-4.48-10-10-10h-490c-5.52 0-10-4.48-10-10 0 5.52-4.48 10-10 10H910c-5.52 0-10 4.48-10 10" stroke="#5e5e5e" stroke-width="3"/></g><path d="M460 562.5V694c0 3.3 2.7 6 6 6h738c3.3 0 6 2.7 6 6v203.5c0 3.3 2.7 6 6 6h185.75c3.32 0 6-2.7 6-6V894" stroke="#5e5e5e" stroke-width="2" fill="none"/><path d="M461 562.53h-2v-1.03h2z" fill="#5e5e5e"/><path d="M1407.75 878.74l4.64 14.26h-9.28z" stroke="#5e5e5e" stroke-width="2" fill="#5e5e5e"/><path d="M20 804.5c0-3.3 2.7-6 6-6h148c3.3 0 6 2.7 6 6v148c0 3.3-2.7 6-6 6H26c-3.3 0-6-2.7-6-6z" stroke="#5e5e5e" stroke-width="3" fill="#fff"/><use xlink:href="#n" transform="matrix(1,0,0,1,25,803.5) translate(20.494999999999997 78.71527777777777)"/><use xlink:href="#o" transform="matrix(1,0,0,1,25,803.5) translate(78.39623456790123 78.71527777777777)"/><use xlink:href="#p" transform="matrix(1,0,0,1,25,803.5) translate(128.505 78.71527777777777)"/><path d="M200 806c0-3.3 2.7-6 6-6h148c3.3 0 6 2.7 6 6v148c0 3.3-2.7 6-6 6H206c-3.3 0-6-2.7-6-6z" stroke="#5e5e5e" stroke-width="3" fill="#fff"/><use xlink:href="#q" transform="matrix(1,0,0,1,205,805) translate(33.7037037037037 78.71527777777777)"/><path d="M380 806c0-3.3 2.7-6 6-6h148c3.3 0 6 2.7 6 6v148c0 3.3-2.7 6-6 6H386c-3.3 0-6-2.7-6-6z" stroke="#5e5e5e" stroke-width="3" fill="#fff"/><use xlink:href="#r" transform="matrix(1,0,0,1,385,805) translate(28.580246913580254 78.71527777777777)"/><use xlink:href="#s" transform="matrix(1,0,0,1,385,805) translate(66.7283950617284 78.71527777777777)"/><path d="M560 806c0-3.3 2.7-6 6-6h148c3.3 0 6 2.7 6 6v148c0 3.3-2.7 6-6 6H566c-3.3 0-6-2.7-6-6z" stroke="#5e5e5e" stroke-width="3" fill="#fff"/><use xlink:href="#t" transform="matrix(1,0,0,1,565,805) translate(54.01234567901235 78.71527777777777)"/><path d="M940 1181.5c0-3.3 2.7-6 6-6h148c3.3 0 6 2.7 6 6v148c0 3.3-2.7 6-6 6H946c-3.3 0-6-2.7-6-6z" stroke="#5e5e5e" stroke-width="3" fill="#fff"/><use xlink:href="#u" transform="matrix(1,0,0,1,945,1180.5) translate(53.48765432098766 78.71527777777777)"/><path d="M1160 1181.5c0-3.3 2.7-6 6-6h148c3.3 0 6 2.7 6 6v148c0 3.3-2.7 6-6 6h-148c-3.3 0-6-2.7-6-6z" stroke="#5e5e5e" stroke-width="3" fill="#fff"/><use xlink:href="#v" transform="matrix(1,0,0,1,1165,1180.5) translate(52.40740740740741 78.71527777777777)"/><g fill="none"><path d="M946 1175.5c-3.3 0-6-2.7-6-6v-108c0-3.3 2.7-6 6-6h368c3.3 0 6 2.7 6 6v108c0 3.3-2.7 6-6 6z"/><path d="M1320 1175.5c0-5.52-4.48-10-10-10h-170c-5.52 0-10-4.48-10-10 0 5.52-4.48 10-10 10H950c-5.52 0-10 4.48-10 10" stroke="#5e5e5e" stroke-width="3"/></g><path d="M640 962.5V1091c0 3.3 2.7 6 6 6h488c3.3 0 6 2.7 6 6v86c0 2.76-2.24 5-5 5s-5-2.24-5-5v-16.5" stroke="#5e5e5e" stroke-width="2" fill="none"/><path d="M641 962.53h-2v-1.03h2z" fill="#5e5e5e"/><path d="M1130 1157.24l4.64 14.26h-9.28z" stroke="#5e5e5e" stroke-width="2" fill="#5e5e5e"/><path d="M440 1184.5c0-3.3 2.7-6 6-6h148c3.3 0 6 2.7 6 6v148c0 3.3-2.7 6-6 6H446c-3.3 0-6-2.7-6-6z" stroke="#5e5e5e" stroke-width="3" fill="#fff"/><use xlink:href="#r" transform="matrix(1,0,0,1,445,1183.5) translate(28.580246913580254 64.65277777777777)"/><use xlink:href="#w" transform="matrix(1,0,0,1,445,1183.5) translate(66.7283950617284 64.65277777777777)"/><use xlink:href="#x" transform="matrix(1,0,0,1,445,1183.5) translate(69.44444444444444 91.31944444444446)"/><path d="M260 1186c0-3.3 2.7-6 6-6h148c3.3 0 6 2.7 6 6v148c0 3.3-2.7 6-6 6H266c-3.3 0-6-2.7-6-6z" stroke="#5e5e5e" stroke-width="3" fill="#fff"/><use xlink:href="#r" transform="matrix(1,0,0,1,265,1185) translate(28.580246913580254 64.65277777777777)"/><use xlink:href="#w" transform="matrix(1,0,0,1,265,1185) translate(66.7283950617284 64.65277777777777)"/><use xlink:href="#y" transform="matrix(1,0,0,1,265,1185) translate(62.65432098765432 91.31944444444446)"/><path d="M80 1186c0-3.3 2.7-6 6-6h148c3.3 0 6 2.7 6 6v148c0 3.3-2.7 6-6 6H86c-3.3 0-6-2.7-6-6z" stroke="#5e5e5e" stroke-width="3" fill="#fff"/><use xlink:href="#r" transform="matrix(1,0,0,1,85,1185) translate(28.580246913580254 69.34027777777777)"/><use xlink:href="#w" transform="matrix(1,0,0,1,85,1185) translate(66.7283950617284 69.34027777777777)"/><use xlink:href="#z" transform="matrix(1,0,0,1,85,1185) translate(41.840740740740735 93.16250000000001)"/><g fill="none"><path d="M86 1177c-3.3 0-6-2.7-6-6v-108c0-3.3 2.7-6 6-6h708c3.3 0 6 2.7 6 6v108c0 3.3-2.7 6-6 6z"/><path d="M800 1177c0-5.52-4.48-10-10-10H450c-5.52 0-10-4.48-10-10 0 5.52-4.48 10-10 10H90c-5.52 0-10 4.48-10 10" stroke="#5e5e5e" stroke-width="3"/></g><path d="M460 962.5v33c0 3.3-2.7 6-6 6h-78c-3.3 0-6 2.7-6 6v182c0 3.3 2.7 6 6 6h59.77c3.3 0 6-2.7 6-6V1174" stroke="#5e5e5e" stroke-width="2" fill="none"/><path d="M461 962.53h-2v-1.03h2z" fill="#5e5e5e"/><path d="M441.77 1158.74l4.63 14.26h-9.27z" stroke="#5e5e5e" stroke-width="2" fill="#5e5e5e"/><path d="M640 1184.5c0-3.3 2.7-6 6-6h148c3.3 0 6 2.7 6 6v148c0 3.3-2.7 6-6 6H646c-3.3 0-6-2.7-6-6z" stroke="#5e5e5e" stroke-width="3" fill="#fff"/><use xlink:href="#r" transform="matrix(1,0,0,1,645,1183.5) translate(28.580246913580254 64.65277777777777)"/><use xlink:href="#w" transform="matrix(1,0,0,1,645,1183.5) translate(66.7283950617284 64.65277777777777)"/><use xlink:href="#A" transform="matrix(1,0,0,1,645,1183.5) translate(68.82716049382717 91.31944444444446)"/><g fill="none"><path d="M-174 800c-3.3 0-6-2.7-6-6V686c0-3.3 2.7-6 6-6h908c3.3 0 6 2.7 6 6v108c0 3.3-2.7 6-6 6z"/><path d="M740 800c0-5.52-4.48-10-10-10H290c-5.52 0-10-4.48-10-10 0 5.52-4.48 10-10 10h-440c-5.52 0-10 4.48-10 10" stroke="#5e5e5e" stroke-width="3"/></g><path d="M200 562.5v93.25c0 3.3 2.7 6 6 6h47.56c3.3 0 6 2.7 6 6v75.75" stroke="#5e5e5e" stroke-width="2" fill="none"/><path d="M201 562.53h-2v-1.03h2z" fill="#5e5e5e"/><path d="M259.56 758.76l-4.64-14.26h9.27z" stroke="#5e5e5e" stroke-width="2" fill="#5e5e5e"/><path d="M-180 804.5c0-3.3 2.7-6 6-6h148c3.3 0 6 2.7 6 6v148c0 3.3-2.7 6-6 6h-148c-3.3 0-6-2.7-6-6z" stroke="#5e5e5e" stroke-width="3" fill="#fff"/><use xlink:href="#B" transform="matrix(1,0,0,1,-175,803.5) translate(33.7037037037037 64.65277777777777)"/><use xlink:href="#C" transform="matrix(1,0,0,1,-175,803.5) translate(44.16666666666667 91.31944444444446)"/><path d="M-360 1041.5c0-3.3 2.7-6 6-6h148c3.3 0 6 2.7 6 6v148c0 3.3-2.7 6-6 6h-148c-3.3 0-6-2.7-6-6z" stroke="#5e5e5e" stroke-width="3" fill="#fff"/><use xlink:href="#D" transform="matrix(1,0,0,1,-355,1040.5) translate(38.858024691358025 78.71527777777777)"/><use xlink:href="#E" transform="matrix(1,0,0,1,-355,1040.5) translate(75.40123456790124 78.71527777777777)"/><path d="M-160 1041.5c0-3.3 2.7-6 6-6H-6c3.3 0 6 2.7 6 6v148c0 3.3-2.7 6-6 6h-148c-3.3 0-6-2.7-6-6z" stroke="#5e5e5e" stroke-width="3" fill="#fff"/><use xlink:href="#h" transform="matrix(1,0,0,1,-155,1040.5) translate(25.370370370370374 78.71527777777777)"/><use xlink:href="#F" transform="matrix(1,0,0,1,-155,1040.5) translate(52.46913580246914 78.71527777777777)"/><path d="M-560 1041.5c0-3.3 2.7-6 6-6h148c3.3 0 6 2.7 6 6v148c0 3.3-2.7 6-6 6h-148c-3.3 0-6-2.7-6-6z" stroke="#5e5e5e" stroke-width="3" fill="#fff"/><use xlink:href="#G" transform="matrix(1,0,0,1,-555,1040.5) translate(40.89506172839506 78.71527777777777)"/><use xlink:href="#H" transform="matrix(1,0,0,1,-555,1040.5) translate(73.42592592592592 78.71527777777777)"/><g fill="none"><path d="M-554 1035.5c-3.3 0-6-2.7-6-6v-108c0-3.3 2.7-6 6-6H-6c3.3 0 6 2.7 6 6v108c0 3.3-2.7 6-6 6z"/><path d="M0 1035.5c0-5.52-4.48-10-10-10h-260c-5.52 0-10-4.48-10-10 0 5.52-4.48 10-10 10h-260c-5.52 0-10 4.48-10 10" stroke="#5e5e5e" stroke-width="3"/></g><path d="M-100 961v15c0 3.3-2.7 6-6 6h-98c-3.3 0-6 2.7-6 6v60c0 3.3-2.7 6-6 6h-56.72c-3.32 0-6-2.7-6-6v-15.5" stroke="#5e5e5e" stroke-width="2" fill="none"/><path d="M-99 961.03h-2V960h2z" fill="#5e5e5e"/><path d="M-278.72 1017.24l4.63 14.26h-9.26z" stroke="#5e5e5e" stroke-width="2" fill="#5e5e5e"/><path d="M1540 906c0-3.3 2.7-6 6-6h148c3.3 0 6 2.7 6 6v148c0 3.3-2.7 6-6 6h-148c-3.3 0-6-2.7-6-6z" stroke="#5e5e5e" stroke-width="3" fill="#fff"/><g><use xlink:href="#I" transform="matrix(1,0,0,1,1545,905) translate(33.05555555555556 64.65277777777777)"/><use xlink:href="#J" transform="matrix(1,0,0,1,1545,905) translate(44.81481481481482 91.31944444444446)"/></g><path d="M1760 906c0-3.3 2.7-6 6-6h148c3.3 0 6 2.7 6 6v148c0 3.3-2.7 6-6 6h-148c-3.3 0-6-2.7-6-6z" stroke="#5e5e5e" stroke-width="3" fill="#fff"/><g><use xlink:href="#K" transform="matrix(1,0,0,1,1765,905) translate(36.629629629629626 66.49583333333334)"/><use xlink:href="#L" transform="matrix(1,0,0,1,1765,905) translate(5.155555555555537 88.89583333333334)"/><use xlink:href="#M" transform="matrix(1,0,0,1,1765,905) translate(82.77777777777777 88.89583333333334)"/></g><path d="M1540 1166c0-3.3 2.7-6 6-6h148c3.3 0 6 2.7 6 6v148c0 3.3-2.7 6-6 6h-148c-3.3 0-6-2.7-6-6z" stroke="#5e5e5e" stroke-width="3" fill="#fff"/><g><use xlink:href="#N" transform="matrix(1,0,0,1,1545,1165) translate(2.3037037037036896 66.49583333333334)"/><use xlink:href="#O" transform="matrix(1,0,0,1,1545,1165) translate(79.92592592592592 66.49583333333334)"/><use xlink:href="#P" transform="matrix(1,0,0,1,1545,1165) translate(38.31481481481481 88.89583333333334)"/><use xlink:href="#Q" transform="matrix(1,0,0,1,1545,1165) translate(76.52962962962962 88.89583333333334)"/></g><path d="M1740 1166c0-3.3 2.7-6 6-6h148c3.3 0 6 2.7 6 6v148c0 3.3-2.7 6-6 6h-148c-3.3 0-6-2.7-6-6z" stroke="#5e5e5e" stroke-width="3" fill="#fff"/><g><use xlink:href="#N" transform="matrix(1,0,0,1,1745,1165) translate(1.73333333333332 66.49583333333334)"/><use xlink:href="#R" transform="matrix(1,0,0,1,1745,1165) translate(79.35555555555555 66.49583333333334)"/><use xlink:href="#S" transform="matrix(1,0,0,1,1745,1165) translate(39.55925925925926 88.89583333333334)"/><use xlink:href="#T" transform="matrix(1,0,0,1,1745,1165) translate(81.92222222222222 88.89583333333334)"/></g><g fill="none"><path d="M1546 1155.5c-3.3 0-6-2.7-6-6v-108c0-3.3 2.7-6 6-6h348c3.3 0 6 2.7 6 6v108c0 3.3-2.7 6-6 6z"/><path d="M1900 1155.5c0-5.52-4.48-10-10-10h-160c-5.52 0-10-4.48-10-10 0 5.52-4.48 10-10 10h-160c-5.52 0-10 4.48-10 10" stroke="#5e5e5e" stroke-width="3"/></g><path d="M1620 1062.5V1168c0 3.3 2.7 6 6 6h89.28c3.3 0 6-2.7 6-6v-15.5" stroke="#5e5e5e" stroke-width="2" fill="none"/><path d="M1621 1062.53h-2v-1.03h2z" fill="#5e5e5e"/><path d="M1721.28 1137.24l4.63 14.26h-9.26z" stroke="#5e5e5e" stroke-width="2" fill="#5e5e5e"/><path d="M1380 406c0-3.3 2.7-6 6-6h148c3.3 0 6 2.7 6 6v148c0 3.3-2.7 6-6 6h-148c-3.3 0-6-2.7-6-6z" stroke="#5e5e5e" stroke-width="3" fill="#fff"/><g><use xlink:href="#U" transform="matrix(1,0,0,1,1385,405) translate(68.24074074074075 78.71527777777777)"/></g><path d="M1620 406c0-3.3 2.7-6 6-6h148c3.3 0 6 2.7 6 6v148c0 3.3-2.7 6-6 6h-148c-3.3 0-6-2.7-6-6z" stroke="#5e5e5e" stroke-width="3" fill="#fff"/><g><use xlink:href="#V" transform="matrix(1,0,0,1,1625,405) translate(66.35802469135803 78.71527777777777)"/></g><g fill="none"><path d="M126 380c-3.3 0-6-2.7-6-6V266c0-3.3 2.7-6 6-6h1648c3.3 0 6 2.7 6 6v108c0 3.3-2.7 6-6 6z"/><path d="M1780 380c0-5.52-4.48-10-10-10H960c-5.52 0-10-4.48-10-10 0 5.52-4.48 10-10 10H130c-5.52 0-10 4.48-10 10" stroke="#5e5e5e" stroke-width="3"/></g><defs><path fill="#333" d="M140-251c81 0 123 46 123 126C263-46 219 4 140 4 59 4 17-45 17-125s42-126 123-126zm0 227c63 0 89-41 89-101s-29-99-89-99c-61 0-89 39-89 99S79-25 140-24" id="W"/><path fill="#333" d="M117-194c89-4 53 116 60 194h-32v-121c0-31-8-49-39-48C34-167 62-67 57 0H25l-1-190h30c1 10-1 24 2 32 11-22 29-35 61-36" id="X"/><path fill="#333" d="M59-47c-2 24 18 29 38 22v24C64 9 27 4 27-40v-127H5v-23h24l9-43h21v43h35v23H59v120" id="Y"/><path fill="#333" d="M100-194c62-1 85 37 85 99 1 63-27 99-86 99S16-35 15-95c0-66 28-99 85-99zM99-20c44 1 53-31 53-75 0-43-8-75-51-75s-53 32-53 75 10 74 51 75" id="Z"/><path fill="#333" d="M24 0v-261h32V0H24" id="aa"/><path fill="#333" d="M177-190C167-65 218 103 67 71c-23-6-38-20-44-43l32-5c15 47 100 32 89-28v-30C133-14 115 1 83 1 29 1 15-40 15-95c0-56 16-97 71-98 29-1 48 16 59 35 1-10 0-23 2-32h30zM94-22c36 0 50-32 50-73 0-42-14-75-50-75-39 0-46 34-46 75s6 73 46 73" id="ab"/><path fill="#333" d="M24-231v-30h32v30H24zM24 0v-190h32V0H24" id="ac"/><path fill="#333" d="M96-169c-40 0-48 33-48 73s9 75 48 75c24 0 41-14 43-38l32 2c-6 37-31 61-74 61-59 0-76-41-82-99-10-93 101-131 147-64 4 7 5 14 7 22l-32 3c-4-21-16-35-41-35" id="ad"/><path fill="#333" d="M141-36C126-15 110 5 73 4 37 3 15-17 15-53c-1-64 63-63 125-63 3-35-9-54-41-54-24 1-41 7-42 31l-33-3c5-37 33-52 76-52 45 0 72 20 72 64v82c-1 20 7 32 28 27v20c-31 9-61-2-59-35zM48-53c0 20 12 33 32 33 41-3 63-29 60-74-43 2-92-5-92 41" id="ae"/><g id="a"><use transform="matrix(0.06172839506172839,0,0,0.06172839506172839,0,0)" xlink:href="#W"/><use transform="matrix(0.06172839506172839,0,0,0.06172839506172839,17.28395061728395,0)" xlink:href="#X"/><use transform="matrix(0.06172839506172839,0,0,0.06172839506172839,29.629629629629626,0)" xlink:href="#Y"/><use transform="matrix(0.06172839506172839,0,0,0.06172839506172839,35.80246913580247,0)" xlink:href="#Z"/><use transform="matrix(0.06172839506172839,0,0,0.06172839506172839,48.148148148148145,0)" xlink:href="#aa"/><use transform="matrix(0.06172839506172839,0,0,0.06172839506172839,53.02469135802469,0)" xlink:href="#Z"/><use transform="matrix(0.06172839506172839,0,0,0.06172839506172839,65.37037037037037,0)" xlink:href="#ab"/><use transform="matrix(0.06172839506172839,0,0,0.06172839506172839,77.71604938271605,0)" xlink:href="#ac"/><use transform="matrix(0.06172839506172839,0,0,0.06172839506172839,82.5925925925926,0)" xlink:href="#ad"/><use transform="matrix(0.06172839506172839,0,0,0.06172839506172839,93.70370370370371,0)" xlink:href="#ae"/><use transform="matrix(0.06172839506172839,0,0,0.06172839506172839,106.0493827160494,0)" xlink:href="#aa"/></g><path fill="#333" d="M115-194c55 1 70 41 70 98S169 2 115 4C84 4 66-9 55-30l1 105H24l-1-265h31l2 30c10-21 28-34 59-34zm-8 174c40 0 45-34 45-75s-6-73-45-74c-42 0-51 32-51 76 0 43 10 73 51 73" id="af"/><path fill="#333" d="M84 4C-5 8 30-112 23-190h32v120c0 31 7 50 39 49 72-2 45-101 50-169h31l1 190h-30c-1-10 1-25-2-33-11 22-28 36-60 37" id="ag"/><path fill="#333" d="M135-143c-3-34-86-38-87 0 15 53 115 12 119 90S17 21 10-45l28-5c4 36 97 45 98 0-10-56-113-15-118-90-4-57 82-63 122-42 12 7 21 19 24 35" id="ah"/><path fill="#333" d="M114-163C36-179 61-72 57 0H25l-1-190h30c1 12-1 29 2 39 6-27 23-49 58-41v29" id="ai"/><g id="b"><use transform="matrix(0.06172839506172839,0,0,0.06172839506172839,0,0)" xlink:href="#af"/><use transform="matrix(0.06172839506172839,0,0,0.06172839506172839,12.345679012345679,0)" xlink:href="#ag"/><use transform="matrix(0.06172839506172839,0,0,0.06172839506172839,24.691358024691358,0)" xlink:href="#aa"/><use transform="matrix(0.06172839506172839,0,0,0.06172839506172839,29.5679012345679,0)" xlink:href="#ah"/><use transform="matrix(0.06172839506172839,0,0,0.06172839506172839,40.67901234567901,0)" xlink:href="#ae"/><use transform="matrix(0.06172839506172839,0,0,0.06172839506172839,53.02469135802469,0)" xlink:href="#Y"/><use transform="matrix(0.06172839506172839,0,0,0.06172839506172839,59.19753086419753,0)" xlink:href="#Z"/><use transform="matrix(0.06172839506172839,0,0,0.06172839506172839,71.54320987654322,0)" xlink:href="#ai"/></g><path fill="#333" d="M115-194c53 0 69 39 70 98 0 66-23 100-70 100C84 3 66-7 56-30L54 0H23l1-261h32v101c10-23 28-34 59-34zm-8 174c40 0 45-34 45-75 0-40-5-75-45-74-42 0-51 32-51 76 0 43 10 73 51 73" id="aj"/><path fill="#333" d="M179-190L93 31C79 59 56 82 12 73V49c39 6 53-20 64-50L1-190h34L92-34l54-156h33" id="ak"/><g id="c"><use transform="matrix(0.06172839506172839,0,0,0.06172839506172839,0,0)" xlink:href="#aj"/><use transform="matrix(0.06172839506172839,0,0,0.06172839506172839,12.345679012345679,0)" xlink:href="#ac"/><use transform="matrix(0.06172839506172839,0,0,0.06172839506172839,17.22222222222222,0)" xlink:href="#X"/><use transform="matrix(0.06172839506172839,0,0,0.06172839506172839,29.5679012345679,0)" xlink:href="#ae"/><use transform="matrix(0.06172839506172839,0,0,0.06172839506172839,41.913580246913575,0)" xlink:href="#ai"/><use transform="matrix(0.06172839506172839,0,0,0.06172839506172839,49.25925925925925,0)" xlink:href="#ak"/></g><g id="d"><use transform="matrix(0.06172839506172839,0,0,0.06172839506172839,0,0)" xlink:href="#ah"/><use transform="matrix(0.06172839506172839,0,0,0.06172839506172839,11.11111111111111,0)" xlink:href="#Y"/><use transform="matrix(0.06172839506172839,0,0,0.06172839506172839,17.28395061728395,0)" xlink:href="#ae"/><use transform="matrix(0.06172839506172839,0,0,0.06172839506172839,29.629629629629626,0)" xlink:href="#ai"/></g><path fill="#333" d="M205 0l-28-72H64L36 0H1l101-248h38L239 0h-34zm-38-99l-47-123c-12 45-31 82-46 123h93" id="al"/><path fill="#333" d="M143 4C61 4 22-44 18-125c-5-107 100-154 193-111 17 8 29 25 37 43l-32 9c-13-25-37-40-76-40-61 0-88 39-88 99 0 61 29 100 91 101 35 0 62-11 79-27v-45h-74v-28h105v86C228-13 192 4 143 4" id="am"/><path fill="#333" d="M190 0L58-211 59 0H30v-248h39L202-35l-2-213h31V0h-41" id="an"/><g id="e"><use transform="matrix(0.06172839506172839,0,0,0.06172839506172839,0,0)" xlink:href="#al"/><use transform="matrix(0.06172839506172839,0,0,0.06172839506172839,14.814814814814813,0)" xlink:href="#am"/><use transform="matrix(0.06172839506172839,0,0,0.06172839506172839,32.09876543209876,0)" xlink:href="#an"/></g><path fill="#333" d="M137-103V0h-34v-103L8-248h37l75 118 75-118h37" id="ao"/><path fill="#333" d="M185-189c-5-48-123-54-124 2 14 75 158 14 163 119 3 78-121 87-175 55-17-10-28-26-33-46l33-7c5 56 141 63 141-1 0-78-155-14-162-118-5-82 145-84 179-34 5 7 8 16 11 25" id="ap"/><g id="f"><use transform="matrix(0.06172839506172839,0,0,0.06172839506172839,0,0)" xlink:href="#ao"/><use transform="matrix(0.06172839506172839,0,0,0.06172839506172839,14.814814814814813,0)" xlink:href="#ap"/><use transform="matrix(0.06172839506172839,0,0,0.06172839506172839,29.629629629629626,0)" xlink:href="#W"/></g><path fill="#333" d="M212-179c-10-28-35-45-73-45-59 0-87 40-87 99 0 60 29 101 89 101 43 0 62-24 78-52l27 14C228-24 195 4 139 4 59 4 22-46 18-125c-6-104 99-153 187-111 19 9 31 26 39 46" id="aq"/><path fill="#333" d="M137 0h-34L2-248h35l83 218 83-218h36" id="ar"/><g id="g"><use transform="matrix(0.06172839506172839,0,0,0.06172839506172839,0,0)" xlink:href="#aq"/><use transform="matrix(0.06172839506172839,0,0,0.06172839506172839,15.987654320987653,0)" xlink:href="#ar"/></g><path fill="#333" d="M266 0h-40l-56-210L115 0H75L2-248h35L96-30l15-64 43-154h32l59 218 59-218h35" id="as"/><use transform="matrix(0.06172839506172839,0,0,0.06172839506172839,0,0)" xlink:href="#as" id="h"/><path fill="#333" d="M232-93c-1 65-40 97-104 97C67 4 28-28 28-90v-158h33c8 89-33 224 67 224 102 0 64-133 71-224h33v155" id="at"/><path fill="#333" d="M210-169c-67 3-38 105-44 169h-31v-121c0-29-5-50-35-48C34-165 62-65 56 0H25l-1-190h30c1 10-1 24 2 32 10-44 99-50 107 0 11-21 27-35 58-36 85-2 47 119 55 194h-31v-121c0-29-5-49-35-48" id="au"/><g id="i"><use transform="matrix(0.06172839506172839,0,0,0.06172839506172839,0,0)" xlink:href="#at"/><use transform="matrix(0.06172839506172839,0,0,0.06172839506172839,15.987654320987653,0)" xlink:href="#au"/><use transform="matrix(0.06172839506172839,0,0,0.06172839506172839,34.44444444444444,0)" xlink:href="#ae"/></g><path fill="#333" d="M160-131c35 5 61 23 61 61C221 17 115-2 30 0v-248c76 3 177-17 177 60 0 33-19 50-47 57zm-97-11c50-1 110 9 110-42 0-47-63-36-110-37v79zm0 115c55-2 124 14 124-45 0-56-70-42-124-44v89" id="av"/><path fill="#333" d="M100-194c63 0 86 42 84 106H49c0 40 14 67 53 68 26 1 43-12 49-29l28 8c-11 28-37 45-77 45C44 4 14-33 15-96c1-61 26-98 85-98zm52 81c6-60-76-77-97-28-3 7-6 17-6 28h103" id="aw"/><g id="j"><use transform="matrix(0.06172839506172839,0,0,0.06172839506172839,0,0)" xlink:href="#av"/><use transform="matrix(0.06172839506172839,0,0,0.06172839506172839,14.814814814814813,0)" xlink:href="#aw"/><use transform="matrix(0.06172839506172839,0,0,0.06172839506172839,27.160493827160494,0)" xlink:href="#Y"/><use transform="matrix(0.06172839506172839,0,0,0.06172839506172839,33.333333333333336,0)" xlink:href="#ae"/></g><path fill="#333" d="M30 0v-248h33v221h125V0H30" id="ax"/><g id="k"><use transform="matrix(0.06172839506172839,0,0,0.06172839506172839,0,0)" xlink:href="#ax"/><use transform="matrix(0.06172839506172839,0,0,0.06172839506172839,11.543209876543209,0)" xlink:href="#ak"/><use transform="matrix(0.06172839506172839,0,0,0.06172839506172839,22.65432098765432,0)" xlink:href="#ai"/></g><path fill="#333" d="M233-177c-1 41-23 64-60 70L243 0h-38l-65-103H63V0H30v-248c88 3 205-21 203 71zM63-129c60-2 137 13 137-47 0-61-80-42-137-45v92" id="ay"/><g id="l"><use transform="matrix(0.06172839506172839,0,0,0.06172839506172839,0,0)" xlink:href="#ay"/><use transform="matrix(0.06172839506172839,0,0,0.06172839506172839,15.987654320987653,0)" xlink:href="#ap"/></g><g id="m"><use transform="matrix(0.06172839506172839,0,0,0.06172839506172839,0,0)" xlink:href="#aq"/><use transform="matrix(0.06172839506172839,0,0,0.06172839506172839,15.987654320987653,0)" xlink:href="#ar"/><use transform="matrix(0.06172839506172839,0,0,0.06172839506172839,30.80246913580247,0)" xlink:href="#X"/></g><path fill="#333" d="M30-248c118-7 216 8 213 122C240-48 200 0 122 0H30v-248zM63-27c89 8 146-16 146-99s-60-101-146-95v194" id="az"/><g id="n"><use transform="matrix(0.06172839506172839,0,0,0.06172839506172839,0,0)" xlink:href="#az"/><use transform="matrix(0.06172839506172839,0,0,0.06172839506172839,15.987654320987653,0)" xlink:href="#aw"/><use transform="matrix(0.06172839506172839,0,0,0.06172839506172839,28.333333333333332,0)" xlink:href="#aa"/><use transform="matrix(0.06172839506172839,0,0,0.06172839506172839,33.20987654320987,0)" xlink:href="#Y"/><use transform="matrix(0.06172839506172839,0,0,0.06172839506172839,39.382716049382715,0)" xlink:href="#ae"/></g><g id="o"><use transform="matrix(0.06172839506172839,0,0,0.06172839506172839,0,0)" xlink:href="#ap"/><use transform="matrix(0.06172839506172839,0,0,0.06172839506172839,14.814814814814813,0)" xlink:href="#ad"/><use transform="matrix(0.06172839506172839,0,0,0.06172839506172839,25.925925925925924,0)" xlink:href="#ag"/><use transform="matrix(0.06172839506172839,0,0,0.06172839506172839,38.2716049382716,0)" xlink:href="#Y"/><use transform="matrix(0.06172839506172839,0,0,0.06172839506172839,44.44444444444444,0)" xlink:href="#ac"/></g><path fill="#333" d="M106-169C34-169 62-67 57 0H25v-261h32l-1 103c12-21 28-36 61-36 89 0 53 116 60 194h-32v-121c2-32-8-49-39-48" id="aA"/><path fill="#333" d="M85-194c31 0 48 13 60 33l-1-100h32l1 261h-30c-2-10 0-23-3-31C134-8 116 4 85 4 32 4 16-35 15-94c0-66 23-100 70-100zm9 24c-40 0-46 34-46 75 0 40 6 74 45 74 42 0 51-32 51-76 0-42-9-74-50-73" id="aB"/><g id="q"><use transform="matrix(0.06172839506172839,0,0,0.06172839506172839,0,0)" xlink:href="#aq"/><use transform="matrix(0.06172839506172839,0,0,0.06172839506172839,15.987654320987653,0)" xlink:href="#aw"/><use transform="matrix(0.06172839506172839,0,0,0.06172839506172839,28.333333333333332,0)" xlink:href="#af"/><use transform="matrix(0.06172839506172839,0,0,0.06172839506172839,40.67901234567901,0)" xlink:href="#aA"/><use transform="matrix(0.06172839506172839,0,0,0.06172839506172839,53.02469135802469,0)" xlink:href="#aw"/><use transform="matrix(0.06172839506172839,0,0,0.06172839506172839,65.37037037037037,0)" xlink:href="#ac"/><use transform="matrix(0.06172839506172839,0,0,0.06172839506172839,70.24691358024691,0)" xlink:href="#aB"/></g><g id="r"><use transform="matrix(0.06172839506172839,0,0,0.06172839506172839,0,0)" xlink:href="#ay"/><use transform="matrix(0.06172839506172839,0,0,0.06172839506172839,15.987654320987653,0)" xlink:href="#ay"/></g><g id="s"><use transform="matrix(0.06172839506172839,0,0,0.06172839506172839,0,0)" xlink:href="#ax"/><use transform="matrix(0.06172839506172839,0,0,0.06172839506172839,11.543209876543209,0)" xlink:href="#ak"/><use transform="matrix(0.06172839506172839,0,0,0.06172839506172839,22.65432098765432,0)" xlink:href="#ai"/><use transform="matrix(0.06172839506172839,0,0,0.06172839506172839,30,0)" xlink:href="#ae"/><use transform="matrix(0.06172839506172839,0,0,0.06172839506172839,42.34567901234568,0)" xlink:href="#aw"/></g><path fill="#333" d="M30-248c87 1 191-15 191 75 0 78-77 80-158 76V0H30v-248zm33 125c57 0 124 11 124-50 0-59-68-47-124-48v98" id="aC"/><g id="t"><use transform="matrix(0.06172839506172839,0,0,0.06172839506172839,0,0)" xlink:href="#ax"/><use transform="matrix(0.06172839506172839,0,0,0.06172839506172839,12.345679012345679,0)" xlink:href="#aC"/><use transform="matrix(0.06172839506172839,0,0,0.06172839506172839,27.160493827160494,0)" xlink:href="#ar"/></g><path fill="#333" d="M240 0l2-218c-23 76-54 145-80 218h-23L58-218 59 0H30v-248h44l77 211c21-75 51-140 76-211h43V0h-30" id="aD"/><g id="u"><use transform="matrix(0.06172839506172839,0,0,0.06172839506172839,0,0)" xlink:href="#aD"/><use transform="matrix(0.06172839506172839,0,0,0.06172839506172839,18.456790123456788,0)" xlink:href="#ac"/><use transform="matrix(0.06172839506172839,0,0,0.06172839506172839,23.33333333333333,0)" xlink:href="#ai"/><use transform="matrix(0.06172839506172839,0,0,0.06172839506172839,30.679012345679006,0)" xlink:href="#ae"/></g><g id="v"><use transform="matrix(0.06172839506172839,0,0,0.06172839506172839,0,0)" xlink:href="#ap"/><use transform="matrix(0.06172839506172839,0,0,0.06172839506172839,14.814814814814813,0)" xlink:href="#ay"/><use transform="matrix(0.06172839506172839,0,0,0.06172839506172839,30.370370370370367,0)" xlink:href="#ar"/></g><g id="w"><use transform="matrix(0.06172839506172839,0,0,0.06172839506172839,0,0)" xlink:href="#ax"/><use transform="matrix(0.06172839506172839,0,0,0.06172839506172839,11.543209876543209,0)" xlink:href="#ak"/><use transform="matrix(0.06172839506172839,0,0,0.06172839506172839,22.65432098765432,0)" xlink:href="#ai"/><use transform="matrix(0.06172839506172839,0,0,0.06172839506172839,30,0)" xlink:href="#ae"/><use transform="matrix(0.06172839506172839,0,0,0.06172839506172839,42.34567901234568,0)" xlink:href="#aw"/></g><use transform="matrix(0.06172839506172839,0,0,0.06172839506172839,0,0)" xlink:href="#ad" id="x"/><g id="y"><use transform="matrix(0.06172839506172839,0,0,0.06172839506172839,0,0)" xlink:href="#ae"/><use transform="matrix(0.06172839506172839,0,0,0.06172839506172839,12.345679012345679,0)" xlink:href="#aj"/></g><path d="M160-131c35 5 61 23 61 61C221 17 115-2 30 0v-248c76 3 177-17 177 60 0 33-19 50-47 57zm-97-11c50-1 110 9 110-42 0-47-63-36-110-37v79zm0 115c55-2 124 14 124-45 0-56-70-42-124-44v89" id="aE"/><path d="M24 0v-261h32V0H24" id="aF"/><path d="M141-36C126-15 110 5 73 4 37 3 15-17 15-53c-1-64 63-63 125-63 3-35-9-54-41-54-24 1-41 7-42 31l-33-3c5-37 33-52 76-52 45 0 72 20 72 64v82c-1 20 7 32 28 27v20c-31 9-61-2-59-35zM48-53c0 20 12 33 32 33 41-3 63-29 60-74-43 2-92-5-92 41" id="aG"/><path d="M9 0v-24l116-142H16v-24h144v24L44-24h123V0H9" id="aH"/><path d="M106-169C34-169 62-67 57 0H25v-261h32l-1 103c12-21 28-36 61-36 89 0 53 116 60 194h-32v-121c2-32-8-49-39-48" id="aI"/><path d="M143 0L79-87 56-68V0H24v-261h32v163l83-92h37l-77 82L181 0h-38" id="aJ"/><path d="M100-194c62-1 85 37 85 99 1 63-27 99-86 99S16-35 15-95c0-66 28-99 85-99zM99-20c44 1 53-31 53-75 0-43-8-75-51-75s-53 32-53 75 10 74 51 75" id="aK"/><g id="z"><use transform="matrix(0.05185185185185186,0,0,0.05185185185185186,0,0)" xlink:href="#aE"/><use transform="matrix(0.05185185185185186,0,0,0.05185185185185186,12.444444444444446,0)" xlink:href="#aF"/><use transform="matrix(0.05185185185185186,0,0,0.05185185185185186,16.540740740740745,0)" xlink:href="#aG"/><use transform="matrix(0.05185185185185186,0,0,0.05185185185185186,26.91111111111112,0)" xlink:href="#aH"/><use transform="matrix(0.05185185185185186,0,0,0.05185185185185186,36.244444444444454,0)" xlink:href="#aI"/><use transform="matrix(0.05185185185185186,0,0,0.05185185185185186,46.61481481481483,0)" xlink:href="#aJ"/><use transform="matrix(0.05185185185185186,0,0,0.05185185185185186,55.948148148148164,0)" xlink:href="#aK"/></g><use transform="matrix(0.06172839506172839,0,0,0.06172839506172839,0,0)" xlink:href="#aB" id="A"/><g id="B"><use transform="matrix(0.06172839506172839,0,0,0.06172839506172839,0,0)" xlink:href="#aq"/><use transform="matrix(0.06172839506172839,0,0,0.06172839506172839,15.987654320987653,0)" xlink:href="#aw"/><use transform="matrix(0.06172839506172839,0,0,0.06172839506172839,28.333333333333332,0)" xlink:href="#af"/><use transform="matrix(0.06172839506172839,0,0,0.06172839506172839,40.67901234567901,0)" xlink:href="#aA"/><use transform="matrix(0.06172839506172839,0,0,0.06172839506172839,53.02469135802469,0)" xlink:href="#aw"/><use transform="matrix(0.06172839506172839,0,0,0.06172839506172839,65.37037037037037,0)" xlink:href="#ac"/><use transform="matrix(0.06172839506172839,0,0,0.06172839506172839,70.24691358024691,0)" xlink:href="#aB"/></g><path fill="#333" d="M16-82v-28h88v28H16" id="aL"/><path fill="#333" d="M33 0v-248h34V0H33" id="aM"/><g id="C"><use transform="matrix(0.06172839506172839,0,0,0.06172839506172839,0,0)" xlink:href="#Y"/><use transform="matrix(0.06172839506172839,0,0,0.06172839506172839,6.172839506172839,0)" xlink:href="#ak"/><use transform="matrix(0.06172839506172839,0,0,0.06172839506172839,17.28395061728395,0)" xlink:href="#af"/><use transform="matrix(0.06172839506172839,0,0,0.06172839506172839,29.629629629629626,0)" xlink:href="#aw"/><use transform="matrix(0.06172839506172839,0,0,0.06172839506172839,41.9753086419753,0)" xlink:href="#aL"/><use transform="matrix(0.06172839506172839,0,0,0.06172839506172839,49.32098765432098,0)" xlink:href="#aM"/><use transform="matrix(0.06172839506172839,0,0,0.06172839506172839,55.49382716049382,0)" xlink:href="#aM"/></g><g id="D"><use transform="matrix(0.06172839506172839,0,0,0.06172839506172839,0,0)" xlink:href="#ay"/><use transform="matrix(0.06172839506172839,0,0,0.06172839506172839,15.555555555555555,0)" xlink:href="#ar"/></g><path fill="#333" d="M127-220V0H93v-220H8v-28h204v28h-85" id="aN"/><g id="E"><use transform="matrix(0.06172839506172839,0,0,0.06172839506172839,0,0)" xlink:href="#aN"/><use transform="matrix(0.06172839506172839,0,0,0.06172839506172839,11.049382716049381,0)" xlink:href="#ae"/><use transform="matrix(0.06172839506172839,0,0,0.06172839506172839,23.39506172839506,0)" xlink:href="#ag"/></g><g id="F"><use transform="matrix(0.06172839506172839,0,0,0.06172839506172839,0,0)" xlink:href="#ar"/><use transform="matrix(0.06172839506172839,0,0,0.06172839506172839,14.382716049382715,0)" xlink:href="#ac"/><use transform="matrix(0.06172839506172839,0,0,0.06172839506172839,19.25925925925926,0)" xlink:href="#ai"/><use transform="matrix(0.06172839506172839,0,0,0.06172839506172839,26.604938271604937,0)" xlink:href="#ab"/><use transform="matrix(0.06172839506172839,0,0,0.06172839506172839,38.95061728395061,0)" xlink:href="#ac"/><use transform="matrix(0.06172839506172839,0,0,0.06172839506172839,43.82716049382716,0)" xlink:href="#X"/><use transform="matrix(0.06172839506172839,0,0,0.06172839506172839,56.172839506172835,0)" xlink:href="#ac"/><use transform="matrix(0.06172839506172839,0,0,0.06172839506172839,61.04938271604938,0)" xlink:href="#ah"/></g><g id="G"><use transform="matrix(0.06172839506172839,0,0,0.06172839506172839,0,0)" xlink:href="#av"/><use transform="matrix(0.06172839506172839,0,0,0.06172839506172839,14.814814814814813,0)" xlink:href="#ax"/></g><path fill="#333" d="M197 0v-115H63V0H30v-248h33v105h134v-105h34V0h-34" id="aO"/><g id="H"><use transform="matrix(0.06172839506172839,0,0,0.06172839506172839,0,0)" xlink:href="#aO"/><use transform="matrix(0.06172839506172839,0,0,0.06172839506172839,15.987654320987653,0)" xlink:href="#aw"/><use transform="matrix(0.06172839506172839,0,0,0.06172839506172839,28.333333333333332,0)" xlink:href="#ai"/></g><g id="I"><use transform="matrix(0.06172839506172839,0,0,0.06172839506172839,0,0)" xlink:href="#ad"/><use transform="matrix(0.06172839506172839,0,0,0.06172839506172839,11.11111111111111,0)" xlink:href="#Z"/><use transform="matrix(0.06172839506172839,0,0,0.06172839506172839,23.45679012345679,0)" xlink:href="#au"/><use transform="matrix(0.06172839506172839,0,0,0.06172839506172839,41.91358024691358,0)" xlink:href="#af"/><use transform="matrix(0.06172839506172839,0,0,0.06172839506172839,54.25925925925926,0)" xlink:href="#ae"/><use transform="matrix(0.06172839506172839,0,0,0.06172839506172839,66.60493827160494,0)" xlink:href="#ad"/><use transform="matrix(0.06172839506172839,0,0,0.06172839506172839,77.71604938271605,0)" xlink:href="#Y"/></g><g id="J"><use transform="matrix(0.06172839506172839,0,0,0.06172839506172839,0,0)" xlink:href="#aj"/><use transform="matrix(0.06172839506172839,0,0,0.06172839506172839,12.345679012345679,0)" xlink:href="#ac"/><use transform="matrix(0.06172839506172839,0,0,0.06172839506172839,17.22222222222222,0)" xlink:href="#X"/><use transform="matrix(0.06172839506172839,0,0,0.06172839506172839,29.5679012345679,0)" xlink:href="#ae"/><use transform="matrix(0.06172839506172839,0,0,0.06172839506172839,41.913580246913575,0)" xlink:href="#ai"/><use transform="matrix(0.06172839506172839,0,0,0.06172839506172839,49.25925925925925,0)" xlink:href="#ak"/></g><path d="M85-194c31 0 48 13 60 33l-1-100h32l1 261h-30c-2-10 0-23-3-31C134-8 116 4 85 4 32 4 16-35 15-94c0-66 23-100 70-100zm9 24c-40 0-46 34-46 75 0 40 6 74 45 74 42 0 51-32 51-76 0-42-9-74-50-73" id="aP"/><path d="M100-194c63 0 86 42 84 106H49c0 40 14 67 53 68 26 1 43-12 49-29l28 8c-11 28-37 45-77 45C44 4 14-33 15-96c1-61 26-98 85-98zm52 81c6-60-76-77-97-28-3 7-6 17-6 28h103" id="aQ"/><path d="M59-47c-2 24 18 29 38 22v24C64 9 27 4 27-40v-127H5v-23h24l9-43h21v43h35v23H59v120" id="aR"/><path d="M96-169c-40 0-48 33-48 73s9 75 48 75c24 0 41-14 43-38l32 2c-6 37-31 61-74 61-59 0-76-41-82-99-10-93 101-131 147-64 4 7 5 14 7 22l-32 3c-4-21-16-35-41-35" id="aS"/><g id="K"><use transform="matrix(0.05185185185185186,0,0,0.05185185185185186,0,0)" xlink:href="#aP"/><use transform="matrix(0.05185185185185186,0,0,0.05185185185185186,10.370370370370372,0)" xlink:href="#aQ"/><use transform="matrix(0.05185185185185186,0,0,0.05185185185185186,20.740740740740744,0)" xlink:href="#aR"/><use transform="matrix(0.05185185185185186,0,0,0.05185185185185186,25.92592592592593,0)" xlink:href="#aG"/><use transform="matrix(0.05185185185185186,0,0,0.05185185185185186,36.296296296296305,0)" xlink:href="#aS"/><use transform="matrix(0.05185185185185186,0,0,0.05185185185185186,45.62962962962964,0)" xlink:href="#aI"/><use transform="matrix(0.05185185185185186,0,0,0.05185185185185186,56.000000000000014,0)" xlink:href="#aQ"/><use transform="matrix(0.05185185185185186,0,0,0.05185185185185186,66.37037037037038,0)" xlink:href="#aP"/></g><path d="M24-231v-30h32v30H24zM24 0v-190h32V0H24" id="aT"/><path d="M115-194c55 1 70 41 70 98S169 2 115 4C84 4 66-9 55-30l1 105H24l-1-265h31l2 30c10-21 28-34 59-34zm-8 174c40 0 45-34 45-75s-6-73-45-74c-42 0-51 32-51 76 0 43 10 73 51 73" id="aU"/><path d="M135-143c-3-34-86-38-87 0 15 53 115 12 119 90S17 21 10-45l28-5c4 36 97 45 98 0-10-56-113-15-118-90-4-57 82-63 122-42 12 7 21 19 24 35" id="aV"/><path d="M117-194c89-4 53 116 60 194h-32v-121c0-31-8-49-39-48C34-167 62-67 57 0H25l-1-190h30c1 10-1 24 2 32 11-22 29-35 61-36" id="aW"/><path d="M177-190C167-65 218 103 67 71c-23-6-38-20-44-43l32-5c15 47 100 32 89-28v-30C133-14 115 1 83 1 29 1 15-40 15-95c0-56 16-97 71-98 29-1 48 16 59 35 1-10 0-23 2-32h30zM94-22c36 0 50-32 50-73 0-42-14-75-50-75-39 0-46 34-46 75s6 73 46 73" id="aX"/><g id="L"><use transform="matrix(0.05185185185185186,0,0,0.05185185185185186,0,0)" xlink:href="#aQ"/><use transform="matrix(0.05185185185185186,0,0,0.05185185185185186,10.370370370370372,0)" xlink:href="#aS"/><use transform="matrix(0.05185185185185186,0,0,0.05185185185185186,19.703703703703706,0)" xlink:href="#aF"/><use transform="matrix(0.05185185185185186,0,0,0.05185185185185186,23.800000000000004,0)" xlink:href="#aT"/><use transform="matrix(0.05185185185185186,0,0,0.05185185185185186,27.8962962962963,0)" xlink:href="#aU"/><use transform="matrix(0.05185185185185186,0,0,0.05185185185185186,38.26666666666667,0)" xlink:href="#aV"/><use transform="matrix(0.05185185185185186,0,0,0.05185185185185186,47.60000000000001,0)" xlink:href="#aT"/><use transform="matrix(0.05185185185185186,0,0,0.05185185185185186,51.6962962962963,0)" xlink:href="#aW"/><use transform="matrix(0.05185185185185186,0,0,0.05185185185185186,62.06666666666667,0)" xlink:href="#aX"/></g><path d="M240 0l2-218c-23 76-54 145-80 218h-23L58-218 59 0H30v-248h44l77 211c21-75 51-140 76-211h43V0h-30" id="aY"/><path d="M185-189c-5-48-123-54-124 2 14 75 158 14 163 119 3 78-121 87-175 55-17-10-28-26-33-46l33-7c5 56 141 63 141-1 0-78-155-14-162-118-5-82 145-84 179-34 5 7 8 16 11 25" id="aZ"/><path d="M16-82v-28h88v28H16" id="ba"/><g id="M"><use transform="matrix(0.05185185185185186,0,0,0.05185185185185186,0,0)" xlink:href="#aY"/><use transform="matrix(0.05185185185185186,0,0,0.05185185185185186,15.503703703703705,0)" xlink:href="#aZ"/><use transform="matrix(0.05185185185185186,0,0,0.05185185185185186,27.94814814814815,0)" xlink:href="#ba"/><use transform="matrix(0.05185185185185186,0,0,0.05185185185185186,34.11851851851852,0)" xlink:href="#aY"/><use transform="matrix(0.05185185185185186,0,0,0.05185185185185186,49.62222222222223,0)" xlink:href="#aZ"/></g><g id="N"><use transform="matrix(0.05185185185185186,0,0,0.05185185185185186,0,0)" xlink:href="#aQ"/><use transform="matrix(0.05185185185185186,0,0,0.05185185185185186,10.370370370370372,0)" xlink:href="#aS"/><use transform="matrix(0.05185185185185186,0,0,0.05185185185185186,19.703703703703706,0)" xlink:href="#aF"/><use transform="matrix(0.05185185185185186,0,0,0.05185185185185186,23.800000000000004,0)" xlink:href="#aT"/><use transform="matrix(0.05185185185185186,0,0,0.05185185185185186,27.8962962962963,0)" xlink:href="#aU"/><use transform="matrix(0.05185185185185186,0,0,0.05185185185185186,38.26666666666667,0)" xlink:href="#aV"/><use transform="matrix(0.05185185185185186,0,0,0.05185185185185186,47.60000000000001,0)" xlink:href="#aT"/><use transform="matrix(0.05185185185185186,0,0,0.05185185185185186,51.6962962962963,0)" xlink:href="#aW"/><use transform="matrix(0.05185185185185186,0,0,0.05185185185185186,62.06666666666667,0)" xlink:href="#aX"/></g><path d="M266 0h-40l-56-210L115 0H75L2-248h35L96-30l15-64 43-154h32l59 218 59-218h35" id="bb"/><path d="M30-248c118-7 216 8 213 122C240-48 200 0 122 0H30v-248zM63-27c89 8 146-16 146-99s-60-101-146-95v194" id="bc"/><path d="M118-107v75H92v-75H18v-26h74v-75h26v75h74v26h-74" id="bd"/><g id="O"><use transform="matrix(0.05185185185185186,0,0,0.05185185185185186,0,0)" xlink:href="#bb"/><use transform="matrix(0.05185185185185186,0,0,0.05185185185185186,17.57777777777778,0)" xlink:href="#bc"/><use transform="matrix(0.05185185185185186,0,0,0.05185185185185186,31.00740740740741,0)" xlink:href="#bd"/><use transform="matrix(0.05185185185185186,0,0,0.05185185185185186,41.8962962962963,0)" xlink:href="#aP"/><use transform="matrix(0.05185185185185186,0,0,0.05185185185185186,52.26666666666667,0)" xlink:href="#aY"/></g><path d="M87 75C49 33 22-17 22-94c0-76 28-126 65-167h31c-38 41-64 92-64 168S80 34 118 75H87" id="be"/><path d="M190 0L58-211 59 0H30v-248h39L202-35l-2-213h31V0h-41" id="bf"/><g id="P"><use transform="matrix(0.05185185185185186,0,0,0.05185185185185186,0,0)" xlink:href="#be"/><use transform="matrix(0.05185185185185186,0,0,0.05185185185185186,6.170370370370371,0)" xlink:href="#bf"/><use transform="matrix(0.05185185185185186,0,0,0.05185185185185186,19.6,0)" xlink:href="#bf"/></g><path d="M114-163C36-179 61-72 57 0H25l-1-190h30c1 12-1 29 2 39 6-27 23-49 58-41v29" id="bg"/><path d="M33-261c38 41 65 92 65 168S71 34 33 75H2C39 34 66-17 66-93S39-220 2-261h31" id="bh"/><g id="Q"><use transform="matrix(0.05185185185185186,0,0,0.05185185185185186,0,0)" xlink:href="#aZ"/><use transform="matrix(0.05185185185185186,0,0,0.05185185185185186,12.444444444444446,0)" xlink:href="#aQ"/><use transform="matrix(0.05185185185185186,0,0,0.05185185185185186,22.814814814814817,0)" xlink:href="#bg"/><use transform="matrix(0.05185185185185186,0,0,0.05185185185185186,28.985185185185188,0)" xlink:href="#bh"/></g><g id="R"><use transform="matrix(0.05185185185185186,0,0,0.05185185185185186,0,0)" xlink:href="#aV"/><use transform="matrix(0.05185185185185186,0,0,0.05185185185185186,9.333333333333334,0)" xlink:href="#aP"/><use transform="matrix(0.05185185185185186,0,0,0.05185185185185186,19.703703703703706,0)" xlink:href="#aE"/><use transform="matrix(0.05185185185185186,0,0,0.05185185185185186,32.14814814814815,0)" xlink:href="#bd"/><use transform="matrix(0.05185185185185186,0,0,0.05185185185185186,43.03703703703704,0)" xlink:href="#aP"/><use transform="matrix(0.05185185185185186,0,0,0.05185185185185186,53.40740740740741,0)" xlink:href="#aY"/></g><path d="M197 0v-115H63V0H30v-248h33v105h134v-105h34V0h-34" id="bi"/><g id="S"><use transform="matrix(0.05185185185185186,0,0,0.05185185185185186,0,0)" xlink:href="#be"/><use transform="matrix(0.05185185185185186,0,0,0.05185185185185186,6.170370370370371,0)" xlink:href="#bi"/><use transform="matrix(0.05185185185185186,0,0,0.05185185185185186,19.6,0)" xlink:href="#bb"/></g><path d="M137 0h-34L2-248h35l83 218 83-218h36" id="bj"/><g id="T"><use transform="matrix(0.05185185185185186,0,0,0.05185185185185186,0,0)" xlink:href="#bj"/><use transform="matrix(0.05185185185185186,0,0,0.05185185185185186,12.081481481481484,0)" xlink:href="#aT"/><use transform="matrix(0.05185185185185186,0,0,0.05185185185185186,16.17777777777778,0)" xlink:href="#bg"/><use transform="matrix(0.05185185185185186,0,0,0.05185185185185186,22.34814814814815,0)" xlink:href="#bh"/></g><path fill="#333" d="M63-220v92h138v28H63V0H30v-248h175v28H63" id="bk"/><use transform="matrix(0.06172839506172839,0,0,0.06172839506172839,0,0)" xlink:href="#bk" id="U"/><use transform="matrix(0.06172839506172839,0,0,0.06172839506172839,0,0)" xlink:href="#W" id="V"/></defs></g></svg>